<svg xmlns="http://www.w3.org/2000/svg" width="30.108" height="31.729" viewBox="0 0 30.108 31.729">
  <path id="Path_452" data-name="Path 452" d="M479.332,506.887q0-4.911,0-9.822a6.008,6.008,0,0,1,1.655-4.291,5.38,5.38,0,0,1,4.051-1.748h18.7c.119,0,.238.005.357.012a5.71,5.71,0,0,1,5.193,4.6,6.616,6.616,0,0,1,.148,1.355q.014,9.892,0,19.783A5.847,5.847,0,0,1,504.5,522.7a5.422,5.422,0,0,1-.77.048q-9.349,0-18.7,0a5.734,5.734,0,0,1-5.63-5.016,7.047,7.047,0,0,1-.069-1.087Q479.327,511.768,479.332,506.887Zm16.174,12.2h4.713V508.108h2.808l.384-3.694h-3.181c0-.871-.03-1.723.009-2.572.032-.675.321-.958.971-.993.745-.04,1.492-.027,2.239-.036h.222v-3.679c-.053,0-.1-.009-.138-.009-1.155,0-2.31-.02-3.464.009a8.09,8.09,0,0,0-1.6.194,3.407,3.407,0,0,0-2.7,2.643,8.77,8.77,0,0,0-.243,1.719c-.041.831-.013,1.666-.015,2.5,0,.07-.005.14-.009.229h-1.806v3.7h1.815Z" transform="translate(-479.332 -491.025)" fill="#fff"/>
</svg>
