<svg xmlns="http://www.w3.org/2000/svg" width="31.105" height="31.7" viewBox="0 0 31.105 31.7">
  <g id="Group_141" data-name="Group 141" transform="translate(0 0)">
    <path id="Path_453" data-name="Path 453" d="M1064.894-1180.834q0-3.961,0-7.921a7.651,7.651,0,0,1,2.226-5.556,7.353,7.353,0,0,1,4.772-2.286c1.006-.082,2.022-.049,3.033-.05q5.1-.007,10.2,0c1.077,0,2.155-.036,3.23.006a7.622,7.622,0,0,1,6.786,4.224,7.4,7.4,0,0,1,.862,3.6q0,7.386,0,14.771c0,.655.016,1.313-.035,1.964a7.483,7.483,0,0,1-2.284,4.876,7.622,7.622,0,0,1-5.53,2.243q-6.655,0-13.31,0c-.83,0-1.662.019-2.49-.018a7.551,7.551,0,0,1-5.613-2.749,7.583,7.583,0,0,1-1.84-5.083Zm28.684.022c0-2.264.006-4.528-.005-6.791a6.727,6.727,0,0,0-.121-1.275,6.554,6.554,0,0,0-6.476-5.308q-6.528,0-13.057,0a7.3,7.3,0,0,0-1.256.114,6.538,6.538,0,0,0-5.346,6.342c-.013,4.605,0,9.211,0,13.817a6.194,6.194,0,0,0,.34,2,6.534,6.534,0,0,0,6.209,4.466q6.587.014,13.173,0a6.288,6.288,0,0,0,4.05-1.422,6.418,6.418,0,0,0,2.489-5.18C1093.588-1176.3,1093.578-1178.554,1093.578-1180.812Z" transform="translate(-1064.893 1196.662)" fill="#fff"/>
    <path id="Path_454" data-name="Path 454" d="M1259.754-986.175a7.96,7.96,0,0,1,7.969-7.95,7.967,7.967,0,0,1,7.953,7.99,7.959,7.959,0,0,1-8.012,7.925A7.951,7.951,0,0,1,1259.754-986.175Zm7.95,6,.008.047a14.506,14.506,0,0,0,1.491-.25,6.018,6.018,0,0,0,3.624-8.7,5.783,5.783,0,0,0-8.339-2.081,6.053,6.053,0,0,0-2.507,6.231A5.9,5.9,0,0,0,1267.7-980.177Z" transform="translate(-1252.161 1002.018)" fill="#fff"/>
    <path id="Path_455" data-name="Path 455" d="M1614.348-1061.018a2.378,2.378,0,0,1,2.4-2.392,2.393,2.393,0,0,1,2.387,2.393,2.4,2.4,0,0,1-2.4,2.387A2.391,2.391,0,0,1,1614.348-1061.018Z" transform="translate(-1592.937 1068.603)" fill="#fff"/>
  </g>
</svg>
