<svg xmlns="http://www.w3.org/2000/svg" width="31.457" height="31.464" viewBox="0 0 31.457 31.464">
  <path id="Path_451" data-name="Path 451" d="M-148.2,1032v26.056a.739.739,0,0,0-.056.135,3.2,3.2,0,0,1-1.114,1.852,3.92,3.92,0,0,1-1.533.717h-26.05a.464.464,0,0,0-.105-.052,3.163,3.163,0,0,1-2.6-3.193q0-12.489,0-24.977a3.528,3.528,0,0,1,.1-.85,3.162,3.162,0,0,1,3.171-2.392q12.455,0,24.91,0c.092,0,.184,0,.276,0a3.148,3.148,0,0,1,2.2,1.071A3.772,3.772,0,0,1-148.2,1032Zm-14.157,11.643v-1.735h-4.692v14.106h4.7v-.384q0-3.81,0-7.619c0-.194.007-.389.024-.583a2.366,2.366,0,0,1,2.968-1.976,2.4,2.4,0,0,1,1.717,2.413q.007,3.887,0,7.773v.371h4.707c0-.077.009-.128.009-.179,0-2.908.012-5.817,0-8.725a5.317,5.317,0,0,0-2.42-4.552,4.754,4.754,0,0,0-4.629-.655A5.749,5.749,0,0,0-162.361,1043.647Zm-12.555-1.744v14.114h4.673V1041.9Zm5.155-5.531a2.831,2.831,0,0,0-2.838-2.823,2.848,2.848,0,0,0-2.815,2.823,2.832,2.832,0,0,0,2.83,2.831A2.815,2.815,0,0,0-169.761,1036.372Z" transform="translate(179.661 -1029.3)" fill="#fff"/>
</svg>
