<svg xmlns="http://www.w3.org/2000/svg" width="31.276" height="31.269" viewBox="0 0 31.276 31.269">
  <path id="Path_456" data-name="Path 456" d="M1129.812,212.524a15.638,15.638,0,1,1,15.564,15.649A15.62,15.62,0,0,1,1129.812,212.524Zm7.988-1.923c-.116,1.37.823,2.568,2.694,3.353-.3.035-.536.077-.771.085s-.469-.019-.725-.031a3.386,3.386,0,0,0,1.2,1.668,3.6,3.6,0,0,0,1.969.69,7.11,7.11,0,0,1-4.925,1.449,1.137,1.137,0,0,0,.228.165,9.68,9.68,0,0,0,14.587-7.838,2.829,2.829,0,0,1,.043-.942c.125-.271.456-.447.695-.666a2.914,2.914,0,0,0,.243-.244c.231-.27.457-.544.685-.816a7.929,7.929,0,0,0-.893.231c-.289.078-.583.13-.875.193l-.028-.061a3.4,3.4,0,0,0,1.35-1.714c-.624.224-1.229.44-1.833.66a.438.438,0,0,1-.492-.118,3.279,3.279,0,0,0-3.358-.721,3.237,3.237,0,0,0-2.277,2.567,9.544,9.544,0,0,0-.077,1.453,9.765,9.765,0,0,1-6.986-3.578,3.508,3.508,0,0,0,.993,4.542l-.043.068Z" transform="translate(-1129.812 -196.904)" fill="#fff"/>
</svg>
