<svg id="Layer_1" data-name="Layer 1" xmlns="http://www.w3.org/2000/svg" viewBox="0 0 234.38 115.91"><defs><style>.cls-1{fill:#fff;}</style></defs><title>final logo white</title><path class="cls-1" d="M149.38,5.32,147.52,2.9H88.4L86.65,5.17l3,4,25.34,33,3,4,40.85,53.24a34.43,34.43,0,0,0,27.17,13.41h45.74Zm13.36,91.09L121.12,42.15l-3.05-4L94.71,7.74h50.44l1.18,1.55L222,107.93H186.09A29.61,29.61,0,0,1,162.74,96.41Z"/><path class="cls-1" d="M115,42.15,73.42,96.38a30.1,30.1,0,0,1-23.6,11.55H13.91L89.68,9.14Z"/><path class="cls-1" d="M118.07,46.12,77.22,99.36a34.85,34.85,0,0,1-27.4,13.41H4.08L86.65,5.17l3,4L13.91,107.93H49.82a30.1,30.1,0,0,0,23.6-11.55L115,42.15Z"/></svg>