<svg id="Layer_1" data-name="Layer 1" xmlns="http://www.w3.org/2000/svg" viewBox="0 0 327.57 49.02"><defs><style>.cls-1{fill:#fff;}</style></defs><title>final logo white</title><path class="cls-1" d="M125.65,2a19.25,19.25,0,0,1,6.83,1.23,17.79,17.79,0,0,1,5.83,3.58,17,17,0,0,1,4.06,5.76,19.15,19.15,0,0,1,1.49,7.74A18,18,0,0,1,141,30.62a17.46,17.46,0,0,1-7.17,6.26A12.76,12.76,0,0,0,139,38.39c1.9.18,3.86.26,5.88.26v8.17a28.35,28.35,0,0,1-6.7-.87,26.69,26.69,0,0,1-6.82-2.69,21,21,0,0,1-5.68-4.61,19.47,19.47,0,0,1-6.83-1.22A17.72,17.72,0,0,1,113,33.84a16.93,16.93,0,0,1-4.06-5.75,19.2,19.2,0,0,1-1.49-7.75,19.15,19.15,0,0,1,1.49-7.74A16.87,16.87,0,0,1,113,6.84a17.69,17.69,0,0,1,5.83-3.58A19.25,19.25,0,0,1,125.65,2Zm0,9.15a7.48,7.48,0,0,0-4.19,1.21,8.45,8.45,0,0,0-2.9,3.27,10,10,0,0,0-1.07,4.68A9.9,9.9,0,0,0,118.56,25a8.45,8.45,0,0,0,2.9,3.27,7.4,7.4,0,0,0,4.19,1.21,7.52,7.52,0,0,0,4.21-1.21A8.24,8.24,0,0,0,132.77,25a10.26,10.26,0,0,0,1-4.68,10.32,10.32,0,0,0-1-4.68,8.24,8.24,0,0,0-2.91-3.27A7.6,7.6,0,0,0,125.65,11.18Z"/><path class="cls-1" d="M176.93,11.18v16a11.17,11.17,0,0,1-1.65,6.17,10.62,10.62,0,0,1-4.53,3.92,16.65,16.65,0,0,1-13.18,0A10.62,10.62,0,0,1,153,33.37a11.17,11.17,0,0,1-1.65-6.17v-16h9l.06,13.61a7.15,7.15,0,0,0,.86,4,3.87,3.87,0,0,0,5.7,0,7.14,7.14,0,0,0,.87-4l.05-13.61Z"/><path class="cls-1" d="M209.27,11.18v16a11.17,11.17,0,0,1-1.65,6.17,10.62,10.62,0,0,1-4.53,3.92,16.65,16.65,0,0,1-13.18,0,10.62,10.62,0,0,1-4.53-3.92,11.17,11.17,0,0,1-1.65-6.17v-16h9l.05,13.61a7.14,7.14,0,0,0,.87,4,3.87,3.87,0,0,0,5.7,0,7.15,7.15,0,0,0,.86-4l.06-13.61Z"/><path class="cls-1" d="M226.53,10.4a9.82,9.82,0,0,1,4.11.91A10.4,10.4,0,0,1,234,13.64V11.18h9V37.87h-9V33.42a9.47,9.47,0,0,1-3,3.72A8,8,0,0,1,226,38.65a11,11,0,0,1-5.6-1.51,11.17,11.17,0,0,1-4.26-4.69,17.17,17.17,0,0,1-1.65-8,16.2,16.2,0,0,1,1.65-7.63,11.81,11.81,0,0,1,4.39-4.79A11.45,11.45,0,0,1,226.53,10.4Zm1.89,8.79a4,4,0,0,0-3.22,1.57,5.71,5.71,0,0,0-1.28,3.71,5.2,5.2,0,0,0,1.31,3.62,4.41,4.41,0,0,0,3.45,1.46A5.29,5.29,0,0,0,231,29a5.51,5.51,0,0,0,2.06-1.83A5.37,5.37,0,0,0,234,24V21.39a11.25,11.25,0,0,0-2.59-1.57A7.33,7.33,0,0,0,228.42,19.19Z"/><path class="cls-1" d="M259.61,10.4a14.84,14.84,0,0,1,4.84.76A9.48,9.48,0,0,1,268,13.22v7.07a26.07,26.07,0,0,0-3.09-1.6,9.22,9.22,0,0,0-3.71-.76,4.85,4.85,0,0,0-2.23.5A1.63,1.63,0,0,0,258,20a1.21,1.21,0,0,0,.57,1.1,8.35,8.35,0,0,0,2.25.79l1.62.42q7,1.77,7,7.48a7.4,7.4,0,0,1-1.54,4.63,10.36,10.36,0,0,1-4,3.14,12.87,12.87,0,0,1-5.36,1.12,17.17,17.17,0,0,1-5.55-.86,17.65,17.65,0,0,1-4.4-2.12v-7a20.7,20.7,0,0,0,4.27,1.94,13.89,13.89,0,0,0,4.26.78,5.19,5.19,0,0,0,2.23-.36,1.35,1.35,0,0,0,.7-1.31,1.23,1.23,0,0,0-.83-1.13,24.39,24.39,0,0,0-2.41-.91l-2.67-.84a7.86,7.86,0,0,1-4.29-2.8,7.82,7.82,0,0,1-1.36-4.68,7.82,7.82,0,0,1,1.47-4.77,9.53,9.53,0,0,1,4-3.08A14,14,0,0,1,259.61,10.4Z"/><path class="cls-1" d="M284.36,10.4a9.81,9.81,0,0,1,4.1.91,10.29,10.29,0,0,1,3.33,2.33V11.18h9V37.87h-9V33.42a9.47,9.47,0,0,1-3,3.72,8,8,0,0,1-4.92,1.51,11,11,0,0,1-5.6-1.51A11.17,11.17,0,0,1,274,32.45a17.17,17.17,0,0,1-1.65-8A16.2,16.2,0,0,1,274,16.84a11.81,11.81,0,0,1,4.39-4.79A11.46,11.46,0,0,1,284.36,10.4Zm1.88,8.79A4,4,0,0,0,283,20.76a5.71,5.71,0,0,0-1.28,3.71,5.25,5.25,0,0,0,1.31,3.62,4.41,4.41,0,0,0,3.45,1.46,5.29,5.29,0,0,0,2.36-.6,5.51,5.51,0,0,0,2.06-1.83,5.37,5.37,0,0,0,.87-3.17V21.39a11,11,0,0,0-2.59-1.57A7.33,7.33,0,0,0,286.24,19.19Z"/><path class="cls-1" d="M326.32,21.07a7.87,7.87,0,0,0-1.65-.65,7.48,7.48,0,0,0-2-.24,5.14,5.14,0,0,0-3.24,1.1,8.38,8.38,0,0,0-2.31,2.88V37.87h-9V11.18h9V16a19.05,19.05,0,0,1,2.8-3.72A5.42,5.42,0,0,1,324,10.66a5.5,5.5,0,0,1,2.35.47Z"/><rect class="cls-1" x="183.61" y="40.57" width="25.89" height="5.91"/><path class="cls-1" d="M61.55,2.61l-.77-1H36.35l-.72.94,1.25,1.64L47.35,17.83l1.26,1.64,16.88,22A14.24,14.24,0,0,0,76.72,47h18.9Zm5.52,37.64L49.87,17.83l-1.26-1.64L39,3.61H59.8l.49.64L91.56,45H76.72A12.24,12.24,0,0,1,67.07,40.25Z"/><path class="cls-1" d="M47.35,17.83,30.16,40.24A12.42,12.42,0,0,1,20.41,45H5.57L36.88,4.19Z"/><path class="cls-1" d="M48.61,19.47l-16.88,22A14.39,14.39,0,0,1,20.41,47H1.51L35.63,2.55l1.25,1.64L5.57,45H20.41a12.42,12.42,0,0,0,9.75-4.77L47.35,17.83Z"/></svg>