<svg id="Layer_1" data-name="Layer 1" xmlns="http://www.w3.org/2000/svg" viewBox="0 0 43 55"><defs><style>.cls-1{fill:none;stroke:#000;stroke-linecap:round;stroke-linejoin:round;stroke-width:0.75px;}</style></defs><title>icons small</title><polygon class="cls-1" points="33.38 21.27 33.38 33.58 12.48 33.58 12.48 21.27 22.93 15.3 33.38 21.27"/><path class="cls-1" d="M42.15,10.7V51a3.55,3.55,0,0,0-3.54-3.53H4.08a2.34,2.34,0,0,1-.38,0l-.21,0a1.28,1.28,0,0,1-.28-.07l-.09,0-.29-.11L2.55,47h0l-.39-.24a3.39,3.39,0,0,1-.65-.66,4.25,4.25,0,0,1-.25-.39h0a1.74,1.74,0,0,1-.14-.27c0-.1-.08-.2-.11-.3l0-.08-.06-.29,0-.21a2.34,2.34,0,0,1,0-.38v-.43a3.24,3.24,0,0,1,3.23-3.22h.23V7.46H38.92A3.24,3.24,0,0,1,42.15,10.7Z"/><path class="cls-1" d="M18.88,43.83a.84.84,0,0,1-.84.84H13.3a.84.84,0,0,1-.31-1.6.78.78,0,0,1,.35-.08H18A.84.84,0,0,1,18.88,43.83Z"/><path class="cls-1" d="M26.58,40.9a.82.82,0,0,1-.84.84H13.34a.84.84,0,0,1-.84-.84.85.85,0,0,1,.84-.84h12.4A.84.84,0,0,1,26.58,40.9Z"/><path class="cls-1" d="M26.58,37.94a.84.84,0,0,1-.24.6.86.86,0,0,1-.6.25H13.34a.85.85,0,0,1-.84-.85.85.85,0,0,1,.84-.84h12.4A.84.84,0,0,1,26.58,37.94Z"/><path class="cls-1" d="M24.82,22.27a1.89,1.89,0,1,1-1.89-1.89A1.89,1.89,0,0,1,24.82,22.27Z"/><path class="cls-1" d="M35.12,19.54v1.91a.47.47,0,0,1-.71.41L22.93,15.3,11.55,21.8a.54.54,0,0,1-.81-.47V19.61a1.42,1.42,0,0,1,.72-1.24l11.47-6.56L34.46,18.4A1.31,1.31,0,0,1,35.12,19.54Z"/><path class="cls-1" d="M24.82,22.27a1.89,1.89,0,1,1-1.89-1.89A1.89,1.89,0,0,1,24.82,22.27Z"/><polygon class="cls-1" points="27.28 50.25 27.28 52.8 3.79 52.8 1.28 51.53 3.79 50.25 27.28 50.25"/><rect class="cls-1" x="27.28" y="50.25" width="2.54" height="2.55"/><path class="cls-1" d="M32.35,51.46h0A1.34,1.34,0,0,1,31,52.8H29.82V50.25h1.33A1.21,1.21,0,0,1,32.35,51.46Z"/><path class="cls-1" d="M42.15,51a3.55,3.55,0,0,1-3.54,3.54V47.43A3.54,3.54,0,0,1,42.15,51Z"/><path class="cls-1" d="M4.31.58v40H4.08A3.24,3.24,0,0,0,.85,43.78v-40A3.25,3.25,0,0,1,4.08.58Z"/></svg>