<svg id="Layer_1" data-name="Layer 1" xmlns="http://www.w3.org/2000/svg" viewBox="0 0 45 46"><defs><style>.cls-1{fill:none;stroke:#000;stroke-linecap:round;stroke-linejoin:round;stroke-width:0.75px;}</style></defs><title>icons small</title><path class="cls-1" d="M44.59,26.56V31.7a.93.93,0,0,1-.93.92H5.35a.92.92,0,0,1-.92-.92V26.56a.93.93,0,0,1,.92-.93H43.66A.93.93,0,0,1,44.59,26.56Z"/><path class="cls-1" d="M15.37,5.05,8.64,16.24,1.75,12.36a2.78,2.78,0,0,1-.94-3.8l4-6.71A2.78,2.78,0,0,1,8.63.9Z"/><line class="cls-1" x1="8.64" y1="16.24" x2="6.16" y2="14.85"/><polygon class="cls-1" points="41.71 22 40.25 25.63 31.29 25.63 28.72 22.09 24.89 22.83 23.12 20.48 19.91 21.06 18.3 18.04 15.11 18.67 13.44 15.59 10.19 17.11 8.64 16.24 15.37 5.05 41.71 22"/><path class="cls-1" d="M20.07,32.62,16.91,45.14a.46.46,0,0,1-.44.35H12.54a.46.46,0,0,1-.44-.57l3-12.3Z"/><path class="cls-1" d="M37.43,44.92a.46.46,0,0,1-.45.57H33.06a.46.46,0,0,1-.44-.35L29.45,32.62h5Z"/><path class="cls-1" d="M10.72,7.12,8.17,11.36,5.57,9.89a1,1,0,0,1-.36-1.44L6.73,5.91a1,1,0,0,1,1.44-.36Z"/></svg>