<svg id="Layer_1" data-name="Layer 1" xmlns="http://www.w3.org/2000/svg" viewBox="0 0 39 44"><defs><style>.cls-1{fill:none;stroke:#000;stroke-linecap:round;stroke-linejoin:round;stroke-width:0.75px;}</style></defs><title>icons small</title><path class="cls-1" d="M24.17,3.81A16.1,16.1,0,0,1,35.78,19.29c0,.19,0,.4,0,.59H38.5V22.7H.5V19.88H3.57c0-.19,0-.4,0-.59A16.11,16.11,0,0,1,15.07,3.84"/><polyline class="cls-1" points="15.07 10.18 15.07 0.34 19.62 0.34 24.17 0.34 24.17 10.18"/><line class="cls-1" x1="19.62" y1="7.54" x2="19.62" y2="0.34"/><polyline class="cls-1" points="33.75 19.88 38.5 19.88 38.5 22.7 0.5 22.7 0.5 19.88 5.57 19.88"/><line class="cls-1" x1="9.92" y1="19.88" x2="29.4" y2="19.88"/><polyline class="cls-1" points="15.07 10.18 15.07 0.34 19.62 0.34 24.17 0.34 24.17 10.18"/><line class="cls-1" x1="19.62" y1="7.54" x2="19.62" y2="0.34"/><path class="cls-1" d="M34.59,28.15a15,15,0,0,1-1.93,4.76l2.18,2.18a.76.76,0,0,1,0,1.08L31,40a.75.75,0,0,1-1.07,0l-2.18-2.17a15.1,15.1,0,0,1-4.63,1.91V42.9a.76.76,0,0,1-.76.76H16.94a.76.76,0,0,1-.75-.76V39.74a15.09,15.09,0,0,1-4.69-2L9.28,40A.76.76,0,0,1,8.2,40L4.37,36.17a.76.76,0,0,1,0-1.08l2.25-2.26a15.47,15.47,0,0,1-1.88-4.68H.84V25.48h9.91a7.87,7.87,0,0,0,0,.84,9,9,0,0,0,17.91,0,7.87,7.87,0,0,0,0-.84H38.5v2.67Z"/></svg>