<svg id="Layer_1" data-name="Layer 1" xmlns="http://www.w3.org/2000/svg" viewBox="0 0 50 49"><defs><style>.cls-1{fill:none;stroke:#000;stroke-linecap:round;stroke-linejoin:round;stroke-width:0.75px;}</style></defs><title>icons small</title><path class="cls-1" d="M3.82,21.08H21.06a1.05,1.05,0,0,1,1.05,1.05V48.43a0,0,0,0,1,0,0H2.76a0,0,0,0,1,0,0V22.14A1.05,1.05,0,0,1,3.82,21.08Z"/><path class="cls-1" d="M7.05,14.56H17.82a1.05,1.05,0,0,1,1.05,1.05v5.47a0,0,0,0,1,0,0H6a0,0,0,0,1,0,0V15.61A1.05,1.05,0,0,1,7.05,14.56Z"/><path class="cls-1" d="M32.15,5.36H42.92A1.05,1.05,0,0,1,44,6.42v4.86a0,0,0,0,1,0,0H31.1a0,0,0,0,1,0,0V6.42A1.05,1.05,0,0,1,32.15,5.36Z"/><path class="cls-1" d="M28.91,11.27H46.15a1.05,1.05,0,0,1,1.05,1.05v36.1a0,0,0,0,1,0,0H27.86a0,0,0,0,1,0,0V12.33A1.05,1.05,0,0,1,28.91,11.27Z"/><path class="cls-1" d="M34.23,40.57h6.82a1,1,0,0,1,1,1v6.75a0,0,0,0,1,0,0H33.22a0,0,0,0,1,0,0V41.58A1,1,0,0,1,34.23,40.57Z"/><rect class="cls-1" x="5.75" y="23.82" width="2.73" height="2.93"/><rect class="cls-1" x="11.09" y="23.82" width="2.73" height="2.93"/><rect class="cls-1" x="16.43" y="23.82" width="2.73" height="2.93"/><rect class="cls-1" x="5.75" y="30.09" width="2.73" height="2.93"/><rect class="cls-1" x="11.09" y="30.09" width="2.73" height="2.93"/><rect class="cls-1" x="16.43" y="30.09" width="2.73" height="2.93"/><rect class="cls-1" x="5.75" y="36.35" width="2.73" height="2.93"/><rect class="cls-1" x="11.09" y="36.35" width="2.73" height="2.93"/><rect class="cls-1" x="16.43" y="36.35" width="2.73" height="2.93"/><rect class="cls-1" x="31.13" y="14.98" width="2.73" height="2.93"/><rect class="cls-1" x="36.47" y="14.98" width="2.73" height="2.93"/><rect class="cls-1" x="41.81" y="14.98" width="2.73" height="2.93"/><rect class="cls-1" x="31.13" y="21.25" width="2.73" height="2.93"/><rect class="cls-1" x="36.47" y="21.25" width="2.73" height="2.93"/><rect class="cls-1" x="41.81" y="21.25" width="2.73" height="2.93"/><rect class="cls-1" x="31.13" y="27.52" width="2.73" height="2.93"/><rect class="cls-1" x="36.47" y="27.52" width="2.73" height="2.93"/><rect class="cls-1" x="41.81" y="27.52" width="2.73" height="2.93"/><line class="cls-1" x1="37.53" y1="5.36" x2="37.53" y2="0.82"/><line class="cls-1" x1="49.14" y1="48.46" x2="0.86" y2="48.46"/></svg>