<svg id="Layer_1" data-name="Layer 1" xmlns="http://www.w3.org/2000/svg" viewBox="0 0 43 48"><defs><style>.cls-1{fill:none;stroke:#000;stroke-linecap:round;stroke-linejoin:round;stroke-width:0.75px;}</style></defs><title>icons small</title><path class="cls-1" d="M28.7,11.89v4.34A5.93,5.93,0,0,1,24.21,22a5.66,5.66,0,0,1-1.43.18h-3A5.6,5.6,0,0,1,18.39,22a5.93,5.93,0,0,1-4.49-5.74V11.89Z"/><path class="cls-1" d="M35.38,32.8V47.44a1.57,1.57,0,0,1-.53,0H7.52a.38.38,0,0,1-.38-.38V32.4a7.29,7.29,0,0,1,7.26-7.27h4V26a2.91,2.91,0,0,0,5.82,0v-.84H28A7.57,7.57,0,0,1,35.38,32.8Z"/><path class="cls-1" d="M24.21,22v4a2.91,2.91,0,0,1-5.82,0V22a5.6,5.6,0,0,0,1.43.18h3A5.66,5.66,0,0,0,24.21,22Z"/><path class="cls-1" d="M28.7,7.38v1.5H13.9V7.38a4.54,4.54,0,0,1,4.53-4.53h1.44V6.19a.38.38,0,0,0,.38.38H22.3a.37.37,0,0,0,.38-.38V2.85h1.49A4.55,4.55,0,0,1,28.7,7.38Z"/><rect class="cls-1" x="11.67" y="8.88" width="19.34" height="3.01" rx="0.38"/><rect class="cls-1" x="19.87" y="0.55" width="2.81" height="6.02" rx="0.38"/><line class="cls-1" x1="12.37" y1="34.99" x2="12.37" y2="47.45"/><line class="cls-1" x1="31.01" y1="34.99" x2="31.01" y2="47.45"/><path class="cls-1" d="M35.81,28.3l.49.29a.28.28,0,0,0,.38-.07l5.79-10a.27.27,0,0,0-.12-.36l-1.42-.82-.51.88a.26.26,0,0,1-.37.07l-4.57-2.64a.26.26,0,0,1-.12-.35l.51-.88-1.44-.83a.27.27,0,0,0-.37.07l-5.79,10"/><rect class="cls-1" x="36.99" y="13.01" width="2.71" height="5.85" rx="0.28" transform="translate(5.37 41.18) rotate(-60)"/><line class="cls-1" x1="39.21" y1="20.28" x2="34.15" y2="17.35"/><line class="cls-1" x1="37.99" y1="22.4" x2="32.93" y2="19.47"/><line class="cls-1" x1="36.76" y1="24.52" x2="31.7" y2="21.6"/><polygon class="cls-1" points="23.2 32.33 28.96 32.33 28.96 34.35 26.14 35.94 23.2 34.17 23.2 32.33"/><path class="cls-1" d="M7.18,27.59.64,18.4s-1-1.85,2.57-4c0,0,2.64-1.61,4-.3l4.9,9.48"/><path class="cls-1" d="M.64,18.4s.55,1.5,3.3.19,2.27-2.28,2.27-2.28S6,15.45,4,16.46"/><line class="cls-1" x1="6.21" y1="16.31" x2="10.2" y2="24.08"/></svg>