<svg id="Layer_1" data-name="Layer 1" xmlns="http://www.w3.org/2000/svg" viewBox="0 0 35 49"><defs><style>.cls-1,.cls-2{fill:none;stroke:#000;stroke-linecap:round;stroke-linejoin:round;stroke-width:0.75px;}.cls-2{stroke-dasharray:3.02 3.02;}</style></defs><title>icons small</title><path class="cls-1" d="M25.88,35.59v1A1.46,1.46,0,0,1,24.51,38h-14A1.46,1.46,0,0,1,9.1,36.58v-1a1.45,1.45,0,0,1,1.44-1.44h13.9A1.45,1.45,0,0,1,25.88,35.59Z"/><path class="cls-1" d="M12.68,44.41h9.61a0,0,0,0,1,0,0V46A2.34,2.34,0,0,1,20,48.29H15A2.34,2.34,0,0,1,12.68,46V44.41a0,0,0,0,1,0,0Z"/><path class="cls-1" d="M10.47,38h14a0,0,0,0,1,0,0v3.56a2.8,2.8,0,0,1-2.8,2.8H13.28a2.8,2.8,0,0,1-2.8-2.8V38A0,0,0,0,1,10.47,38Z"/><path class="cls-1" d="M17.5,4.9A12.84,12.84,0,0,0,8.08,26.47a.08.08,0,0,1,0,0,6,6,0,0,1,.62.62,10.31,10.31,0,0,1,2.76,7h12a10.35,10.35,0,0,1,3-7.33h0A12.84,12.84,0,0,0,17.5,4.9Zm-3.35,6.46h7.63L19.42,17.5h4.3l-9.3,9.09,1-6.84H13.1Z"/><polygon class="cls-1" points="14.42 26.59 15.4 19.75 13.11 19.75 14.15 11.36 21.78 11.36 19.42 17.5 23.71 17.5 14.42 26.59"/><path class="cls-1" d="M7.08,31.21c-.4-.31-.78-.63-1.15-1"/><path class="cls-2" d="M3.91,28a17,17,0,1,1,26.15,1.24"/><path class="cls-1" d="M29,30.31c-.37.34-.75.66-1.15,1"/></svg>