<svg id="Layer_1" data-name="Layer 1" xmlns="http://www.w3.org/2000/svg" viewBox="0 0 46 46"><defs><style>.cls-1{fill:none;stroke:#000;stroke-linecap:round;stroke-linejoin:round;stroke-width:0.75px;}</style></defs><title>icons small</title><path class="cls-1" d="M45.45,20.67V45.44H31V32.85l2.68-1.37a3,3,0,0,0,.33-.21h0a2.46,2.46,0,0,0,.89-.92L40.14,21a2.52,2.52,0,0,0,.3-1.18,2.44,2.44,0,0,0-4.58-1.2L31,27.33V21.18a7.47,7.47,0,0,1,7.47-7.46A7,7,0,0,1,45.45,20.67Z"/><path class="cls-1" d="M40.44,19.78a2.52,2.52,0,0,1-.3,1.18l-5.2,9.38a2.46,2.46,0,0,1-.89.92h0a3,3,0,0,1-.33.21L31,32.85l-1,.51-3.81,2-.13.06a2.45,2.45,0,0,1-3.56-2.17A2.44,2.44,0,0,1,23.85,31L31,27.36h0v0l4.84-8.75a2.44,2.44,0,0,1,4.58,1.2Z"/><polygon class="cls-1" points="31.02 27.33 31.02 27.36 31 27.36 31.02 27.33"/><path class="cls-1" d="M23.73,35.32H16.29a1.69,1.69,0,0,1-1.68-1.68A1.69,1.69,0,0,1,16.29,32h6.57a2.5,2.5,0,0,0-.34,1.25,2.42,2.42,0,0,0,.27,1.11A2.46,2.46,0,0,0,23.73,35.32Z"/><path class="cls-1" d="M30,33.64a1.71,1.71,0,0,1-1.68,1.68H26.21l3.81-2A2.46,2.46,0,0,1,30,33.64Z"/><line class="cls-1" x1="16.96" y1="31.96" x2="16.96" y2="35.32"/><path class="cls-1" d="M15.75,43.82v1.45H.51V43.82L4.58,43,2.53,38.73l1.18-.56,1.71,1.48,1.81,1.57a2.4,2.4,0,0,0,.44.3,1.17,1.17,0,0,0,.44.13h0A1.79,1.79,0,0,0,9,41.22l2.16-1.86,1.37-1.18,1.17.55-.16.34L11.67,43Z"/><path class="cls-1" d="M8.14,41.65h0"/><path class="cls-1" d="M7.67,38v3.53a2.4,2.4,0,0,1-.44-.3L5.42,39.65V38a.27.27,0,0,1,.27-.27H7.4A.26.26,0,0,1,7.67,38Z"/><path class="cls-1" d="M31.89,17.49l-2.23,2A2.58,2.58,0,0,1,26,19.26L24,16.93l1.41-1.28.08-.07a1.3,1.3,0,0,0,.09-1.83L20.62,8.32a1.42,1.42,0,0,0-.3-.25,1.28,1.28,0,0,0-1.52.15L17.37,9.51l-.24-.27a2.71,2.71,0,0,1,.23-3.81l2.12-1.89a1.28,1.28,0,0,1,1.79.11l.34.39,2.47,2.78,7.56,8.52.35.39A1.24,1.24,0,0,1,31.89,17.49Z"/><path class="cls-1" d="M36,8.33a7.57,7.57,0,0,1-.49,2.7l-.06,0a4.67,4.67,0,0,1-5.64-1.75s1.14-1.49,0-2.63a2,2,0,0,0-2.57,0L25.48,5.43l-1.4,1.39L21.61,4A7.83,7.83,0,0,1,36,8.33Z"/><path class="cls-1" d="M35.49,11a7.8,7.8,0,0,1-3.85,4.31L24.08,6.82l1.4-1.39,1.74,1.25a2,2,0,0,1,2.57,0c1.14,1.14,0,2.63,0,2.63a4.67,4.67,0,0,0,5.64,1.75Z"/><path class="cls-1" d="M14.61,33.64h-6a2,2,0,0,0-2,2v1.9"/><path class="cls-1" d="M25.45,15.58l-.08.07L24,16.93,17.37,9.51,18.8,8.22a1.28,1.28,0,0,1,1.52-.15,1.42,1.42,0,0,1,.3.25l4.92,5.43A1.3,1.3,0,0,1,25.45,15.58Z"/></svg>