<svg id="Layer_1" data-name="Layer 1" xmlns="http://www.w3.org/2000/svg" viewBox="0 0 45 46"><defs><style>.cls-1{fill:none;stroke:#000;stroke-linecap:round;stroke-linejoin:round;stroke-width:0.75px;}</style></defs><title>icons small</title><path class="cls-1" d="M33.57,21.38v5.95A4.54,4.54,0,0,0,29,31.87v3.61a32,32,0,0,0-18.92-.07V31.87a4.54,4.54,0,0,0-4.54-4.54h0V21.38a2,2,0,0,1,2-2h24A2,2,0,0,1,33.57,21.38Z"/><path class="cls-1" d="M31.34,36.29q-1.17-.47-2.31-.81"/><path class="cls-1" d="M10.11,35.41h0"/><path class="cls-1" d="M7.76,36.29a17.69,17.69,0,0,1,2.34-.87"/><path class="cls-1" d="M7,31.87a1.45,1.45,0,1,1-1.49-1.45h0A1.46,1.46,0,0,1,7,31.87Z"/><path class="cls-1" d="M33.57,27.33A4.54,4.54,0,0,0,29,31.87v3.61a32,32,0,0,0-18.92-.07V31.87a4.54,4.54,0,0,0-4.54-4.54h0a4.54,4.54,0,0,0,0,9.07v3.75a2,2,0,0,0,2,2h24a2,2,0,0,0,2-2V36.4a4.54,4.54,0,0,0,0-9.07ZM6.88,32.49a1.45,1.45,0,1,1-1.35-2.07h0A1.46,1.46,0,0,1,7,31.87,1.44,1.44,0,0,1,6.88,32.49Zm26.69.83a1.45,1.45,0,0,1-1.32-.85,1.36,1.36,0,0,1-.14-.6,1.46,1.46,0,1,1,1.46,1.45Z"/><path class="cls-1" d="M7,31.87a1.45,1.45,0,1,1-1.49-1.45h0A1.46,1.46,0,0,1,7,31.87Z"/><line class="cls-1" x1="10.11" y1="35.43" x2="10.11" y2="35.41"/><path class="cls-1" d="M35,31.87a1.45,1.45,0,0,1-2.77.6,1.36,1.36,0,0,1-.14-.6,1.46,1.46,0,1,1,2.91,0Z"/><path class="cls-1" d="M35,31.87a1.45,1.45,0,0,1-2.77.6,1.36,1.36,0,0,1-.14-.6,1.46,1.46,0,1,1,2.91,0Z"/><polygon class="cls-1" points="12.13 42.17 10.68 45.1 8.47 45.1 8.47 42.17 12.13 42.17"/><polygon class="cls-1" points="26.93 42.17 28.38 45.1 30.59 45.1 30.59 42.17 26.93 42.17"/><polygon class="cls-1" points="37.21 42.17 38.66 45.1 40.87 45.1 40.87 42.17 37.21 42.17"/><path class="cls-1" d="M18.81,4.93V3.31A2.42,2.42,0,0,1,21.22.9H41.56A2.42,2.42,0,0,1,44,3.31V39.76a2.41,2.41,0,0,1-2.41,2.41H34.1"/><line class="cls-1" x1="31.35" y1="18.07" x2="31.35" y2="0.9"/><polygon class="cls-1" points="19.48 6.03 6.33 6.03 5.53 14.89 20.22 14.89 19.48 6.03"/><line class="cls-1" x1="12.88" y1="3.83" x2="12.88" y2="6.03"/><line class="cls-1" x1="12.88" y1="18.07" x2="12.88" y2="14.89"/><rect class="cls-1" x="15.12" y="23.01" width="1.48" height="1.48"/><rect class="cls-1" x="11.43" y="26.7" width="1.48" height="1.48"/><rect class="cls-1" x="18.81" y="26.7" width="1.48" height="1.48"/><rect class="cls-1" x="22.5" y="23.01" width="1.48" height="1.48"/><rect class="cls-1" x="26.18" y="26.69" width="1.48" height="1.48"/><rect class="cls-1" x="22.49" y="30.38" width="1.48" height="1.48"/><rect class="cls-1" x="15.12" y="30.38" width="1.48" height="1.48"/></svg>