<svg id="Layer_1" data-name="Layer 1" xmlns="http://www.w3.org/2000/svg" viewBox="0 0 30.85 55"><defs><style>.cls-1{fill:none;stroke:#000;stroke-linecap:round;stroke-linejoin:round;stroke-width:0.75px;}</style></defs><title>icons small</title><path class="cls-1" d="M30.47,21.76v6a3,3,0,0,1-3,3H3.34a3,3,0,0,1-3-3v-6Z"/><path class="cls-1" d="M30.47,3.41V21.76H.38V3.41a3,3,0,0,1,3-3H27.51A3,3,0,0,1,30.47,3.41Z"/><line class="cls-1" x1="5.63" y1="10.07" x2="5.63" y2="0.62"/><line class="cls-1" x1="10.53" y1="16.09" x2="10.53" y2="0.6"/><line class="cls-1" x1="15.43" y1="7.41" x2="15.43" y2="0.58"/><line class="cls-1" x1="20.33" y1="10.07" x2="20.33" y2="0.58"/><line class="cls-1" x1="25.22" y1="12.73" x2="25.22" y2="8.96"/><line class="cls-1" x1="25.23" y1="6.45" x2="25.23" y2="0.6"/><path class="cls-1" d="M19.61,40.9v9.45a4.15,4.15,0,0,1-8.3,0V40.9Z"/><rect class="cls-1" x="9.71" y="35.49" width="11.62" height="5.41" rx="0.39"/><path class="cls-1" d="M11.39,35.47A4.83,4.83,0,0,0,6.2,30.71"/><path class="cls-1" d="M19.43,35.47a4.84,4.84,0,0,1,5.2-4.76"/></svg>