<svg id="Layer_1" data-name="Layer 1" xmlns="http://www.w3.org/2000/svg" viewBox="0 0 36 46"><defs><style>.cls-1{fill:none;stroke:#000;stroke-linecap:round;stroke-linejoin:round;stroke-width:0.75px;}</style></defs><title>icons small</title><path class="cls-1" d="M33.73,21.22v5.83a2.17,2.17,0,0,1,0,.26h-6V23.87a3.92,3.92,0,0,0-3.93-3.93H21.72V12.43h3.22A8.78,8.78,0,0,1,33.73,21.22Z"/><path class="cls-1" d="M9.8,12.24v7.7H1.2a.41.41,0,0,1-.4-.41V12.64a.4.4,0,0,1,.4-.4Z"/><path class="cls-1" d="M21.72,12.24v9.48a2.84,2.84,0,0,1-2.87,2.87H12.68A2.88,2.88,0,0,1,9.8,21.72V12.24a2.88,2.88,0,0,1,2.88-2.88h6.17A2.88,2.88,0,0,1,21.72,12.24Z"/><path class="cls-1" d="M15.75,8.56V2.62S6.81,0,6.81,2.62s8.94,0,8.94,0"/><path class="cls-1" d="M15.75,2.62s8.93-2.67,8.93,0-8.93,0-8.93,0"/><path class="cls-1" d="M35.3,40.94a4.55,4.55,0,1,1-8.36-2.5l.51-.64,3.29-4.14L34.24,38l0,.06A4.48,4.48,0,0,1,35.3,40.94Z"/></svg>