<svg id="Layer_1" data-name="Layer 1" xmlns="http://www.w3.org/2000/svg" viewBox="0 0 220.47 117.55"><defs><style>.cls-1{fill:#283479;}</style></defs><title>final logo</title><path class="cls-1" d="M19,72.23a19.25,19.25,0,0,1,6.83,1.23,17.82,17.82,0,0,1,5.83,3.59,16.83,16.83,0,0,1,4.06,5.75,19.2,19.2,0,0,1,1.49,7.75,18.07,18.07,0,0,1-2.82,10.28,17.56,17.56,0,0,1-7.17,6.25,12.77,12.77,0,0,0,5.1,1.52q2.85.25,5.89.26V117a28.18,28.18,0,0,1-6.7-.86,27.13,27.13,0,0,1-6.83-2.69A21.38,21.38,0,0,1,19,108.86a19.25,19.25,0,0,1-6.83-1.23,17.79,17.79,0,0,1-5.83-3.58,17,17,0,0,1-4.06-5.76,20.87,20.87,0,0,1,0-15.49,17,17,0,0,1,4.06-5.75,17.82,17.82,0,0,1,5.83-3.59A19.25,19.25,0,0,1,19,72.23Zm0,9.16a7.44,7.44,0,0,0-4.18,1.2,8.62,8.62,0,0,0-2.91,3.27,10.79,10.79,0,0,0,0,9.37,8.47,8.47,0,0,0,2.91,3.27A7.44,7.44,0,0,0,19,99.7a7.57,7.57,0,0,0,4.21-1.2,8.24,8.24,0,0,0,2.91-3.27,11.07,11.07,0,0,0,0-9.37,8.38,8.38,0,0,0-2.91-3.27A7.57,7.57,0,0,0,19,81.39Z"/><path class="cls-1" d="M70.28,81.39v16a11.18,11.18,0,0,1-1.65,6.18,10.66,10.66,0,0,1-4.52,3.92,15.24,15.24,0,0,1-6.6,1.36,15.22,15.22,0,0,1-6.59-1.36,10.61,10.61,0,0,1-4.52-3.92,11.18,11.18,0,0,1-1.65-6.18v-16h9l0,13.6a7.21,7.21,0,0,0,.86,4,3.21,3.21,0,0,0,2.85,1.26A3.22,3.22,0,0,0,60.37,99a7.21,7.21,0,0,0,.86-4l.05-13.6Z"/><path class="cls-1" d="M102.62,81.39v16a11.18,11.18,0,0,1-1.65,6.18,10.69,10.69,0,0,1-4.53,3.92,16.65,16.65,0,0,1-13.18,0,10.69,10.69,0,0,1-4.53-3.92,11.18,11.18,0,0,1-1.65-6.18v-16h9L86.14,95A7.12,7.12,0,0,0,87,99a3.85,3.85,0,0,0,5.7,0,7.11,7.11,0,0,0,.87-4l.05-13.6Z"/><path class="cls-1" d="M119.89,80.6a9.9,9.9,0,0,1,4.11.92,10.24,10.24,0,0,1,3.32,2.33V81.39h9v26.69h-9v-4.45a9.52,9.52,0,0,1-3,3.71,8,8,0,0,1-4.92,1.52,11,11,0,0,1-5.59-1.52,11.16,11.16,0,0,1-4.27-4.68,17.17,17.17,0,0,1-1.65-8A16.24,16.24,0,0,1,109.5,87a11.9,11.9,0,0,1,4.4-4.79A11.4,11.4,0,0,1,119.89,80.6Zm1.88,8.8A4,4,0,0,0,118.55,91a5.74,5.74,0,0,0-1.28,3.72,5.24,5.24,0,0,0,1.31,3.61A4.39,4.39,0,0,0,122,99.76a5.18,5.18,0,0,0,2.36-.61,5.51,5.51,0,0,0,2.06-1.83,5.34,5.34,0,0,0,.87-3.16V91.59A11,11,0,0,0,124.73,90,7.31,7.31,0,0,0,121.77,89.4Z"/><path class="cls-1" d="M153,80.6a15.06,15.06,0,0,1,4.84.76,9.55,9.55,0,0,1,3.58,2.07v7.06a25.15,25.15,0,0,0-3.08-1.59,9.1,9.1,0,0,0-3.72-.76,4.78,4.78,0,0,0-2.22.5,1.62,1.62,0,0,0-1,1.54,1.21,1.21,0,0,0,.57,1.1,9.13,9.13,0,0,0,2.25.78l1.63.42q7,1.78,7,7.48a7.43,7.43,0,0,1-1.55,4.64,10.36,10.36,0,0,1-4,3.14,12.81,12.81,0,0,1-5.36,1.12,17.45,17.45,0,0,1-5.55-.86,17.75,17.75,0,0,1-4.39-2.12v-7a20.36,20.36,0,0,0,4.26,1.93,13.65,13.65,0,0,0,4.27.79,5,5,0,0,0,2.22-.37,1.34,1.34,0,0,0,.71-1.31,1.22,1.22,0,0,0-.84-1.12,24,24,0,0,0-2.41-.92L147.46,97a7.85,7.85,0,0,1-4.29-2.79,8,8,0,0,1-1.36-4.69,7.79,7.79,0,0,1,1.47-4.76,9.55,9.55,0,0,1,4-3.09A14.17,14.17,0,0,1,153,80.6Z"/><path class="cls-1" d="M177.71,80.6a9.9,9.9,0,0,1,4.11.92,10.24,10.24,0,0,1,3.32,2.33V81.39h9v26.69h-9v-4.45a9.34,9.34,0,0,1-3,3.71,8,8,0,0,1-4.91,1.52,11,11,0,0,1-5.6-1.52,11.16,11.16,0,0,1-4.27-4.68,17.17,17.17,0,0,1-1.65-8A16.24,16.24,0,0,1,167.32,87a11.9,11.9,0,0,1,4.4-4.79A11.42,11.42,0,0,1,177.71,80.6Zm1.88,8.8A4,4,0,0,0,176.37,91a5.74,5.74,0,0,0-1.28,3.72,5.24,5.24,0,0,0,1.31,3.61,4.39,4.39,0,0,0,3.45,1.47,5.15,5.15,0,0,0,2.36-.61,5.61,5.61,0,0,0,2.07-1.83,5.41,5.41,0,0,0,.86-3.16V91.59A11,11,0,0,0,182.55,90,7.31,7.31,0,0,0,179.59,89.4Z"/><path class="cls-1" d="M219.68,91.28a8.36,8.36,0,0,0-1.65-.66,8.08,8.08,0,0,0-2-.23,5.14,5.14,0,0,0-3.24,1.1,8.18,8.18,0,0,0-2.3,2.88v13.71h-9V81.39h9v4.76a18.31,18.31,0,0,1,2.8-3.71,6.06,6.06,0,0,1,6.41-1.1Z"/><rect class="cls-1" x="76.96" y="110.78" width="25.89" height="5.91"/><path class="cls-1" d="M130.54,2.31l-.77-1H105.34l-.72.94L70.5,46.71H89.4a14.39,14.39,0,0,0,11.32-5.54l16.88-22,16.88,22a14.24,14.24,0,0,0,11.23,5.54h18.9ZM136.06,40l-17.2-22.42-1.26-1.64L108,3.31h20.84l.49.64,31.27,40.76H145.71A12.24,12.24,0,0,1,136.06,40Z"/></svg>